<!-- by TradingView --><svg width="56" height="56" viewBox="0 0 56 56" xmlns="http://www.w3.org/2000/svg"><path fill="#083A5D" d="M0 0h56v56H0z"/><path d="M16.78 20c4.06 0 7.22 2.17 7.22 6.5 0 4.25-3.36 6.5-7.38 6.5H11v-.37c1.08-.07 1-.48 1-1.54v-9.1c0-.98.08-1.59-1-1.62V20h5.78Zm.13.33c-1.1 0-1.91.63-1.91 1.65v9.18c0 1.03.82 1.5 1.92 1.5 3.31.01 4.08-3.6 4.08-6.16s-.83-6.17-4.1-6.17ZM29.27 20a4.95 4.95 0 0 1 3.06.88c.1.04.19.06.27.06.12 0 .2-.07.25-.2.06-.13.11-.48.15-.74h.4v4.32H33a5.88 5.88 0 0 0-.54-1.83 4.02 4.02 0 0 0-1.03-1.46 2.25 2.25 0 0 0-1.58-.59c-.54 0-.99.16-1.34.46-.36.3-.53.72-.53 1.28 0 .44.1.83.33 1.16.23.32.56.65 1.01.98l1.74 1.22c.55.36 1.05.73 1.49 1.1.43.36.78.77 1.04 1.23.27.46.41 1.01.41 1.66 0 .78-.21 1.43-.64 1.95-.42.5-.98.89-1.68 1.15-.7.25-1.46.37-2.29.37a6.47 6.47 0 0 1-2.99-.65c-.26-.17-.46-.25-.6-.25-.12 0-.2.06-.27.2-.05.12-.09.44-.12.7H25v-5h.48c.05.8.18 1.47.39 2.17.22.7.56 1.26 1 1.7.47.42 1.08.63 1.83.63.43 0 .8-.07 1.12-.2.32-.15.57-.36.76-.63.19-.28.28-.62.28-1.02 0-.5-.1-.93-.33-1.3-.23-.36-.53-.7-.92-1.02-.4-.33-.85-.66-1.37-.99-.55-.37-1.07-.74-1.56-1.11-.48-.38-.87-.8-1.17-1.26a3.24 3.24 0 0 1-.42-1.7c0-.75.2-1.37.58-1.86.4-.48.9-.83 1.54-1.06a5.98 5.98 0 0 1 2.06-.35ZM35 20c1.93.07 3.86.02 5.79.02 2.3 0 5.21 1.2 5.21 3.98 0 3.03-3.06 4-5.62 4H38.5v-.37h1.7c1.97 0 2.8-2 2.8-3.63 0-1.39-.55-3.63-2.37-3.63-1 0-1.63.78-1.63 1.63v8.9c0 1.44.66 1.67 2 1.7v.4h-6v-.37c1.08-.07 1-.52 1-1.58V22c0-1.03.09-1.6-1-1.63V20Z" fill="#FFFEFA"/><path fill="#32BAAB" d="M10 34h35v2H10z"/></svg>