<!-- by TradingView --><svg width="56" height="56" viewBox="0 0 56 56" xmlns="http://www.w3.org/2000/svg"><path fill="#EF8200" d="M0 0h56v56H0z"/><path fill-rule="evenodd" d="m11.63 24 1.79-4H16l-.34 7h-1.85l.3-4.88L11.99 27h-1.44l-.64-4.88L8.78 27H7l1.68-7h2.39l.56 4Zm8-4H17.6l-1.02 7h2l1.05-7Zm5.77 3.47c.4-.47.5-1.14.5-1.63 0-.48-.12-.92-.54-1.32-.43-.41-1.31-.52-1.78-.52H20.8l-1.05 7h1.83l.51-3.38L23.6 27h1.97l-1.49-2.94s.92-.12 1.32-.59Zm-1.49-1.35c0 1.1-1.15 1.02-1.15 1.02h-.6l.27-1.81h.59c.96 0 .9.79.9.79ZM28.96 20h2.48l1.25 7h-1.94l-.25-1.57h-2.14L27.7 27h-1.96l3.22-7Zm.98 1.55L28.84 24h1.46l-.36-2.45Zm5.18 3.9.21-1.45h2.6l.2-1.38h-2.6l.18-1.24h2.78l.2-1.38h-4.67L33 27h4.73l.2-1.55h-2.81Zm-19.11 6.8-1.57 1.4c.86.13 2.87.23 3.93.28h.06v.01c1 .07 10.8.67 19.77-2.27l.17-.06a24.75 24.75 0 0 0 3.98-1.58l-.24 1.66h-1.46l-.8 5.3h-2.1l.72-4.9c-.1.04-1.07.37-2.4.76l-.19 1.29h-2.62l-.2 1.3h2.84L35.7 37h-4.76l.45-3.1c-.27.04-.53.08-.8.1l-.14.02c.02.1.03.22.03.34 0 .94-.34 1.55-.83 1.95-.48.4-1.05.69-2 .69-.93 0-1.84-.27-2.92-1.14l.91-1.42-.87.05a2.35 2.35 0 0 1-.83 1.82c-.48.4-1.05.69-2 .69-.93 0-1.84-.27-2.92-1.14l.85-1.32-1.34-.07.46 2.53h-1.95l-.23-1.47h-2.25l-.6 1.47H12l3.24-7h2.5l.48 2.71c-.96-.13-2.21-.46-2.21-.46Zm22.24-.57.03-.01h.03-.06Zm-12.54 2.76c.85-.05 1.68-.12 2.47-.2.2.26.2.5.2.5 0 .7-.8.62-.8.62-.85 0-1.69-.75-1.87-.92Zm-5.6.1c.86.03 1.7.04 2.52.03l.04.17c0 .7-.8.62-.8.62-.72 0-1.45-.55-1.76-.81Zm3.05-2c.33.14.61.28.85.44-1.08.02-3.14-.1-3.76-.14-.1-.2-.17-.45-.17-.74.01-1.53 1.29-2.42 2.73-2.42.98 0 1.8.33 2.3.73l-.76 1.33s-.78-.63-1.4-.62c-.61.02-.7.5-.68.6 0 0-.1.4.9.82Zm6.3.28c-.18-.1-.38-.19-.59-.28-.98-.41-.9-.82-.9-.82 0-.1.08-.58.7-.6.61-.01 1.39.62 1.39.62l.75-1.33a3.68 3.68 0 0 0-2.29-.73c-1.44 0-2.72.9-2.73 2.42 0 .36.1.64.25.86.66 0 2.3-.03 3.41-.14Zm2.1-.1.4-2.72h4.69l-.2 1.39h-2.78l-.16 1.06c-.63.11-1.5.22-1.94.27ZM41.77 30h-4.43l-.27 1.65h.04c.51-.13 2.95-.8 4.65-1.65Zm1.35-1-.11-.14c5.26-3.98 5.63-7.72 5.63-7.72L51 20c-1.14 5.71-7.9 9-7.9 9Z" fill="#fff"/></svg>