<!-- by TradingView --><svg width="56" height="56" viewBox="0 0 56 56" xmlns="http://www.w3.org/2000/svg"><path fill="#2075E8" d="M0 0h56v56H0z"/><path d="m30.07 12.5 10.46 5.37A4.53 4.53 0 0 1 43 21.92V24h-4v-2.08c0-.25 0-.5-.23-.61L28.3 16.09a.7.7 0 0 0-.63 0L17.23 21.3c-.23.11-.23.36-.23.6V24h-4v-2.08a4.54 4.54 0 0 1 2.47-4.05l10.46-5.37a4.54 4.54 0 0 1 4.14 0ZM31 28c0-1.74-1.28-3-3-3a2.94 2.94 0 0 0-3 3c-.02 1.72 1.18 2.98 3 3 1.82.02 3-1.26 3-3Zm7.77 6.7c.23-.12.23-.37.23-.62V32h4v2.08a4.53 4.53 0 0 1-2.47 4.05L30.08 43.5a4.56 4.56 0 0 1-4.15 0l-10.46-5.37A4.53 4.53 0 0 1 13 34.08V32h4v2.08c0 .26 0 .5.23.61L26 39v-4.5a6.51 6.51 0 0 1-5-6.5c0-3.95 2.78-7 7-7 4.22 0 7 3 7 7 0 3.37-1.99 5.66-5 6.5V39l8.77-4.3Z" fill="#fff"/></svg>