<!-- by TradingView --><svg width="56" height="56" xmlns="http://www.w3.org/2000/svg"><path fill="#FF4724" d="M0 0h56v56H0z"/><path d="M28 12a.691.691 0 00-.596.345l-14.312 24.63a.687.687 0 000 .689l8.734-4.665 6.175-11.003V12z" fill="#fff"/><path d="M42.907 36.974l-14.309-24.63a.7.7 0 00-.597-.344v9.999l6.157 11.021 8.75 4.647a.688.688 0 000-.693z" fill="#fff"/><path d="M42.907 37.68L34.167 33H21.833l-8.742 4.68c.061.097.148.178.253.234a.738.738 0 00.345.086h28.617a.74.74 0 00.347-.086.668.668 0 00.253-.233z" fill="#fff"/></svg>