<!-- by TradingView --><svg width="56" height="56" viewBox="0 0 56 56" xmlns="http://www.w3.org/2000/svg"><path fill="#FF1256" d="M0 0h56v56H0z"/><path d="m20.89 16.97 5.71-3.35c.5-.27.5-.83.14-1.17l-4.77-4.38a.25.25 0 0 0-.34 0l-.45.43a1.36 1.36 0 0 0 0 1.99l1.87 1.63c.32.3.26.8-.12 1.03l-2.23 1.3c-.7.4-.9 1.27-.48 1.93l.34.51c.07.1.22.14.33.08ZM25.74 34.36a5.84 5.84 0 0 0-1.35-5.22l-3.27-3.74a4.55 4.55 0 0 1 .95-6.8l5.35-3.46a.9.9 0 0 1 1.1.1c1.96 1.82 8.77 8.38 8.47 15.16 0 0 0 10.53-10.27 14.47a2.01 2.01 0 0 1-2.64-2.4c1.42-5.67 1.67-8.12 1.67-8.12Zm1.34-16.21-3.75 2.4a1.78 1.78 0 0 0-.39 2.65l3.42 4a9 9 0 0 1 2.08 8.03l-.57 2.54a1.16 1.16 0 0 0 1.89 1.13c3.6-3.13 8.65-10.68-1.89-20.67a.65.65 0 0 0-.79-.08Z" fill="#fff"/></svg>