<!-- by TradingView --><svg width="56" height="56" viewBox="0 0 56 56" xmlns="http://www.w3.org/2000/svg"><path fill="#F0F3FA" d="M0 0h56v56H0z"/><path d="M13.32 29c1.04 0 2.07.14 2.95.7.38.24.55.94.29 1.3-.26.36-.86.66-1.25.42a3.67 3.67 0 0 0-2-.42c-1.9 0-3.31 1.37-3.31 3.07 0 1.72 1.42 2.93 3.32 2.93.9 0 1.26-.27 1.68-.5V35h-1a1 1 0 0 1 0-2h2.15c.47 0 .85.35.85.78v3.58c0 .24-.12.47-.34.62A5.83 5.83 0 0 1 13.32 39C10.5 39 8 36.64 8 34.07 8 31.52 10.49 29 13.32 29Z" fill="#85C43F"/><path d="M45.3 31c1.43 0 2.7 1 2.7 3.6v3.42c0 .54-.49.98-1 .98-.5 0-1-.44-1-.98V34.6c0-1.36-.53-1.92-1.37-1.92-1.28 0-1.57 1.27-1.63 1.7v3.63c0 .54-.5.98-1 .98-.51 0-1-.44-1-.98v-6c0-.54.49-.99 1-.99.5 0 1 .45 1 1v.75c.06-.54.76-1.78 2.3-1.78Z" fill="#136D37"/><path d="M22.11 31c.59 0 .89.42.89.9 0 .56-.4.94-1.2.94a1.8 1.8 0 0 0-1.8 1.54v3.64c0 .53-.5.98-1 .98-.52 0-1-.45-1-.98v-6c0-.54.48-.99 1-.99.5 0 1 .45 1 1v.75c.06-.54.82-1.78 2.11-1.78Z" fill="#85C43F"/><path fill-rule="evenodd" d="M13 17a1 1 0 0 1 1 .97v8.06a1 1 0 0 1-2 0v-8.06a1 1 0 0 1 1-.97Zm11 .97a1 1 0 0 0-1-.97c-.51 0-1 .45-1 .97v5.55l-4.17-5.97c-.23-.34-.55-.55-.95-.55-.5 0-.88.32-.88.92v8.1a1 1 0 0 0 1 .98c.51 0 1-.45 1-.97v-5.55l4.17 5.96c.24.35.56.56.96.56.48 0 .87-.32.87-.93v-8.1Zm20 8.2c0-.24-.09-.47-.21-.65l-2.7-3.67 2.47-3.37c.14-.18.23-.41.23-.65 0-.48-.38-.83-.92-.83-.32 0-.6.13-.8.4L40 20.33l-2.08-2.91a.93.93 0 0 0-.8-.41c-.53 0-.9.35-.9.83 0 .24.08.47.21.65l2.48 3.37-2.7 3.67c-.13.18-.22.41-.22.65 0 .48.37.83.92.83.31 0 .58-.13.78-.4l2.3-3.25 2.3 3.24c.2.28.47.41.8.41.54 0 .9-.35.9-.83ZM30 17c2.52 0 5 2.04 5 5s-2.48 5-5 5-5-2.04-5-5 2.48-5 5-5Zm-3 5c0-1.8 1.4-3 3-3 1.61 0 3 1.2 3 3s-1.4 3-3 3-3-1.2-3-3Z" fill="url(#ag4vy2xya)"/><path d="M35.64 37c-1.23 0-2.08-.7-3.14-2.5l-1.74.93c1.12 1.92 2.8 3.57 4.88 3.57a4.6 4.6 0 0 0 2.87-1.11l.5.48v-2.2h-2.25l.61.6a5.4 5.4 0 0 1-1.73.23Z" fill="url(#bg4vy2xya)"/><path d="M27.06 31.03c2.29 0 3.5 1.64 4.7 3.27l.24.3-1.23.87c-.96-1.29-1.86-2.47-3.71-2.47-.84 0-1.5.37-1.82 1H28a1 1 0 1 1 0 2h-2.82c.28.66.9 1 1.8 1 1.2 0 1.81-.46 2.02-.69V38h.92c-.57.5-1.55.97-2.94.97A4.09 4.09 0 0 1 23 35.04c0-2.07 2.02-4.01 4.06-4.01Z" fill="url(#cg4vy2xya)"/><path d="M39.96 34.99C39.3 33.03 38.03 31 35.63 31c-2.27 0-3.83 2.1-5.13 3.87l-.45.6-.4-.46-.24 2.2 2.3.14-.58-.66c.15-.18.3-.38.45-.6 1-1.35 2.3-3.09 4.05-3.09 1.2 0 1.87.5 2.37 1.48h-2.57a.43.43 0 0 0-.43.42v.63c0 .23.2.47.43.47h3.78c.53 0 .92-.53.75-1.01Z" fill="url(#dg4vy2xya)"/><defs><linearGradient id="ag4vy2xya" x1="13" y1="17.9" x2="45.18" y2="17.9" gradientUnits="userSpaceOnUse"><stop stop-color="#0E579C"/><stop offset="1" stop-color="#157EB7"/></linearGradient><linearGradient id="bg4vy2xya" x1="39" y1="36.75" x2="30.76" y2="36.75" gradientUnits="userSpaceOnUse"><stop stop-color="#186C3B"/><stop offset="1" stop-color="#4E8E3F"/></linearGradient><linearGradient id="cg4vy2xya" x1="32" y1="35" x2="23" y2="35" gradientUnits="userSpaceOnUse"><stop stop-color="#52943C"/><stop offset="1" stop-color="#86C43F"/></linearGradient><linearGradient id="dg4vy2xya" x1="40" y1="34.17" x2="29.41" y2="34.17" gradientUnits="userSpaceOnUse"><stop stop-color="#0F6C33"/><stop offset="1" stop-color="#85C241"/></linearGradient></defs></svg>