<?xml version="1.0" encoding="UTF-8" standalone="no" ?>
<!DOCTYPE svg PUBLIC "-//W3C//DTD SVG 1.1//EN" "http://www.w3.org/Graphics/SVG/1.1/DTD/svg11.dtd">
<svg xmlns="http://www.w3.org/2000/svg" xmlns:xlink="http://www.w3.org/1999/xlink" version="1.1" width="1080" height="1080" viewBox="0 0 1080 1080" xml:space="preserve">
<desc>Created with Fabric.js 5.2.4</desc>
<defs>
</defs>
<g transform="matrix(1 0 0 1 540 540)" id="94b928ba-18d0-4956-8aee-c8f68637187d"  >
<rect style="stroke: none; stroke-width: 1; stroke-dasharray: none; stroke-linecap: butt; stroke-dashoffset: 0; stroke-linejoin: miter; stroke-miterlimit: 4; fill: rgb(255,255,255); fill-rule: nonzero; opacity: 1; visibility: hidden;" vector-effect="non-scaling-stroke"  x="-540" y="-540" rx="0" ry="0" width="1080" height="1080" />
</g>
<g transform="matrix(1 0 0 1 540 540)" id="882ac3b4-1229-4621-9ee8-09b89d3a31a5"  >
</g>
<g transform="matrix(38.57 0 0 38.57 540 540)"  >
<path style="stroke: none; stroke-width: 1; stroke-dasharray: none; stroke-linecap: butt; stroke-dashoffset: 0; stroke-linejoin: miter; stroke-miterlimit: 4; fill: rgb(0,0,0); fill-rule: evenodd; opacity: 1;"  transform=" translate(-14, -14)" d="M 11.88 4.23 C 13.277218093469937 3.928164245500292 14.722781906530063 3.928164245500294 16.119999999999997 4.230000000000002 L 16.1 4.23 C 16.91001815640278 5.8776257849956375 17.440579502432072 7.648416519513762 17.670000000000005 9.469999999999992 C 16.47949920459502 9.826693223679955 15.24277680173971 10.005293461694484 13.999999999999998 10.000000000000002 C 12.7 10 11.45 9.81 10.33 9.47 C 10.66 7.32 11.22 5.5 11.9 4.24 L 11.88 4.23 Z M 10.620000000000001 4.58 C 9.051334395332745 5.1457909661096535 7.6488726439892405 6.094515092018492 6.540000000000002 7.339999999999996 C 7.3633407331453125 8.10807287685173 8.323211352969567 8.715199523313009 9.369999999999997 9.129999999999997 C 9.65 7.379999999999999 10.080000000000002 5.829999999999999 10.620000000000001 4.579999999999999 Z M 9.22 10.15 C 7.950000000000001 9.65 6.82 8.97 5.920000000000001 8.120000000000001 C 3.3507286549369404 11.622698971955117 3.3507286549369377 16.387301028044885 5.919999999999999 19.89 C 6.840000000000001 19.05 7.960000000000001 18.37 9.23 17.87 C 8.916480278377072 15.306216014061087 8.91648027837707 12.713783985938925 9.229999999999997 10.150000000000011 Z M 9.38 18.89 C 8.33962695021704 19.31287141036652 7.381709861293427 19.915377565237204 6.55 20.67 C 7.65 21.89 9.05 22.85 10.620000000000001 23.42 C 10.02226664450731 21.966630773954773 9.60579865474797 20.44517916620493 9.379999999999999 18.89 Z M 11.88 23.77 L 11.9 23.77 C 11.091746690320262 22.128736315142998 10.561218979558188 20.364816155793946 10.329999999999998 18.55 C 12.72003050774413 17.805500699358802 15.27996949225587 17.805500699358802 17.67 18.55 C 17.43770266856893 20.36139367462596 16.907200559925098 22.121849716686064 16.1 23.76 L 16.12 23.770000000000003 C 14.722781906530065 24.071835754499713 13.277218093469935 24.07183575449971 11.879999999999999 23.770000000000003 Z M 17.380000000000003 23.419999999999998 C 18.944008257067466 22.855588467215043 20.342786620406038 21.91046795144573 21.450000000000003 20.669999999999995 C 20.618290138706577 19.9153775652372 19.660373049782958 19.312871410366512 18.619999999999997 18.889999999999993 C 18.340000000000003 20.629999999999995 17.920000000000005 22.179999999999996 17.380000000000006 23.419999999999998 Z M 18.770000000000003 17.869999999999997 C 20.040000000000003 18.369999999999997 21.17 19.049999999999997 22.080000000000002 19.889999999999997 C 24.64607344517323 16.386254576141383 24.646073445173233 11.623745423858614 22.080000000000005 8.119999999999997 C 21.180000000000003 8.969999999999997 20.05 9.659999999999997 18.78 10.149999999999997 C 19.0900997210193 12.714196002897978 19.086741664069926 15.306615967808094 18.769999999999992 17.87 Z M 17.800000000000004 10.469999999999997 C 15.3176715997534 11.188922797393573 12.682328400246607 11.188922797393573 10.200000000000003 10.469999999999997 C 9.930209432763714 12.81894527874201 9.930209432763714 15.19105472125798 10.200000000000005 17.539999999999992 C 12.680078732705363 16.80539356135628 15.319921267294635 16.80539356135628 17.799999999999997 17.539999999999996 C 18.069965997467296 15.191064766125606 18.0699659974673 12.818935233874388 17.800000000000008 10.469999999999994 Z M 18.630000000000003 9.129999999999997 C 19.67756875172392 8.7122000906915 20.63749325746241 8.101647401529213 21.46 7.329999999999997 C 20.34997618812674 6.088161179295643 18.947613912291814 5.1429415080833785 17.380000000000003 4.579999999999999 C 17.92 5.829999999999997 18.35 7.379999999999997 18.630000000000003 9.129999999999997 Z M 14 3 C 7.924867751861272 3 3 7.924867751861272 3 14 C 3 20.07513224813873 7.924867751861272 25 14 25 C 20.07513224813873 25 25 20.07513224813873 25 14 C 25 7.924867751861271 20.07513224813873 3 14 3 Z" stroke-linecap="round" />
</g>
</svg>