<!-- by TradingView --><svg width="56" height="56" fill="none" xmlns="http://www.w3.org/2000/svg"><path fill="#1C68F3" d="M0 0h56v56H0z"/><path fill-rule="evenodd" clip-rule="evenodd" d="M43 22v8H16.924C18.063 35.225 22.6 39 28 39c4.465 0 8.465-3.123 10.313-7H43v7.9c0 1.712-1.343 3.1-3 3.1H16c-1.657 0-3-1.388-3-3.1V22h30zm-7.5 10c-1.591 2.404-4.47 4-7.5 4-3.03 0-5.909-1.596-7.5-4h15zm-14.063-8c-2.35 0-4.364 1.663-4.687 4h2.771c.281-.9.953-1.649 1.916-1.649.964 0 1.594.75 1.875 1.649h2.813c-.323-2.337-2.337-4-4.688-4zm13.125 0c-2.35 0-4.363 1.663-4.687 4h2.813c.28-.9.91-1.649 1.874-1.649.965 0 1.594.75 1.876 1.649h2.812c-.324-2.337-2.337-4-4.688-4zM40 13c1.657 0 3 1.388 3 3.1V19H13v-2.9c0-1.712 1.343-3.1 3-3.1h24z" fill="#fff"/></svg>