<!-- by TradingView --><svg width="56" height="56" fill="none" xmlns="http://www.w3.org/2000/svg"><path fill="#FC1E1F" d="M0 0h56v56H0z"/><path d="M14.118 32.9c0-2.959 1.465-6.478 2.197-7.868-1.118-3.514-2.934-10.867-1.257-12.166 1.677-1.3 5.726 3.018 7.54 5.339.741-.392 2.842-1.175 5.32-1.175s4.807.783 5.663 1.175c4.88-5.462 6.922-5.835 7.332-5.339 1.725 2.179-.073 9.018-1.188 12.166.72 1.153 2.156 4.342 2.156 7.869 0 4.408-6.335 10.727-13.99 10.727S14.119 36.6 14.119 32.9z" fill="#EB9A2E"/><path fill-rule="evenodd" clip-rule="evenodd" d="M16.752 23.196c-.655-2.213-1.767-6.945-.982-8.167.785-1.222 3.933 1.837 5.409 3.52-.85.678-2.927 2.558-4.427 4.647zm22.638 0c.654-2.213 1.767-6.945.982-8.167-.786-1.222-3.933 1.837-5.409 3.52.85.678 2.927 2.558 4.427 4.647z" fill="#E58014"/><path d="M22.963 26.252a9.726 9.726 0 01-2.223.143.563.563 0 01-.546-.51c-.07-.906.273-2.115 1.3-2.067 1.232.058 1.77.97 1.959 1.72.084.337-.152.652-.49.713zM33.073 26.252c.876.16 1.685.173 2.223.143a.563.563 0 00.546-.51c.07-.906-.273-2.115-1.3-2.067-1.232.058-1.77.97-1.959 1.72-.084.337.152.652.49.713z" fill="#FEFFF7"/><path d="M27.142 43.446c-10.533-1.605-13.07-7.712-13.023-10.565 5.443-.402 7.309 1.704 7.561 2.807.145-1.68 1.561-5.042 6.063-5.042s5.918 3.361 6.063 5.042c2.786-3.411 6.664-3.053 8.255-2.448-2.576 8.565-11.02 10.373-14.92 10.206z" fill="#EAEAE8"/><path fill-rule="evenodd" clip-rule="evenodd" d="M29.382 32.264H26.46a.739.739 0 00-.733.744v1.442c.043.467.475 1.36 1.83 1.51v1.432a.833.833 0 00-.206.3h-1.747v.019a3.212 3.212 0 00-.607-.442.182.182 0 00-.248.075.187.187 0 00.073.252c.117.065.298.18.452.314.078.067.145.135.194.2.05.066.073.117.078.15.007.038.023.07.047.096v.8c0 .102.082.186.183.186a.185.185 0 00.183-.186v-1.093h3.928v1.093c0 .102.082.186.183.186a.185.185 0 00.184-.186v-.893a.18.18 0 00.005-.033l.003-.007a.376.376 0 01.046-.063c.047-.055.117-.12.203-.188.17-.137.375-.273.513-.355a.188.188 0 00.065-.255.182.182 0 00-.251-.066 5.172 5.172 0 00-.556.385l-.013.01h-1.834a.704.704 0 00-.145-.188v-1.535c1.407-.124 1.806-1.043 1.825-1.518v-1.442a.739.739 0 00-.733-.744zm-2.686 6.333l.388.475.296-.281.537.52.555-.52.259.281.358-.475h-2.393z" fill="#000001"/><path d="M19.95 27.481c-.539-.212-.545.284-.48.558v.414a1.862 1.862 0 001.187 1.734c1.634.614 4.395 1.464 4.093.574-.4-1.173-4.126-3.015-4.8-3.28zM35.937 27.481c.538-.212.545.284.48.558v.414a1.862 1.862 0 01-1.187 1.734c-1.634.614-4.396 1.464-4.093.574.399-1.173 4.126-3.015 4.8-3.28z" fill="#000"/><path fill-rule="evenodd" clip-rule="evenodd" d="M22.59 17.35c-1.585-1.962-3.549-4.161-5.973-5.124-5.661-2.25-1.65 10.704-1.057 12.572-.776 1.507-2.246 5.035-2.246 8.015C13.314 39.265 22.634 44 28 44c5.605 0 14.67-4.58 14.67-11.187 0-3.497-1.33-6.582-2.111-7.898 1.203-3.428 3.426-9.67 1.024-12.751-1.618-1.935-7.353 4.286-8.05 5.052-1.049-.429-3.237-.942-5.617-.942-2.337 0-4.369.64-5.327 1.076zm-7.545-4.44c-.134.102-.259.285-.356.579-.096.292-.156.666-.18 1.114-.047.897.055 2.027.25 3.246.386 2.435 1.127 5.154 1.692 6.914l.05.152-.076.14c-.735 1.384-2.192 4.866-2.192 7.758 0 .838.354 1.912 1.043 3.071.684 1.152 1.68 2.358 2.92 3.455C20.678 41.533 24.212 43 28 43c3.8 0 7.17-1.298 9.702-3.401 2.548-2.116 4.065-4.725 4.065-6.786 0-3.467-1.433-6.614-2.138-7.734l-.097-.155.062-.172c.562-1.572 1.296-4.066 1.671-6.432.188-1.183.284-2.32.228-3.289-.056-.972-.261-1.717-.623-2.175-.009-.007-.081-.055-.311-.02-.266.041-.674.188-1.25.536-1.148.693-2.882 2.133-5.357 4.875l-.178.198-.242-.11c-.835-.379-3.156-1.152-5.616-1.152-1.886 0-3.836.404-5.514 1.283-1.207-1.529-2.518-3-4.024-4.242-.663-.547-2.38-2.046-3.333-1.314z" fill="#000"/></svg>