<!-- by TradingView --><svg xmlns="http://www.w3.org/2000/svg" width="56" height="56" viewBox="0 0 56 56"><path fill="#F0F3FA" d="M0 0h56v56H0z"/><path d="M33.49 25.37c-5.56-8.92-3.71-17.3-2.1-20.37-2.76 3.52-7.06 12.77-2.16 21.63 4.9 8.86 3.19 17.27 1.72 20.37 3.16-3.5 8.1-12.71 2.54-21.63Z" fill="#D46A39"/><path d="M36.8 21.12c-2.01 4.35-21.24 6.7-30.6 7.34 10.8 1.53 40.67-.64 41-6.39.23-4.18-10.42-4.4-15.77-4 4.94.23 5.63 2.13 5.36 3.05Z" fill="#282829"/><path fill-rule="evenodd" d="M11 31v5.03c0 1.09.85 1.97 1.9 1.97h.2c1.05 0 1.9-.88 1.9-1.97V31h-.65v4.88c0 .77-.6 1.39-1.34 1.39-.74 0-1.34-.62-1.34-1.39V31H11Zm5 7v-7h2.43a2 2 0 0 1 .48 3.94c.92.66 1.56 2.24 1.78 3.05h-.85a8.83 8.83 0 0 0-1.8-2.99h-1.31v3H16Zm.7-3.64v-2.6h1.73c.67 0 1.22.59 1.22 1.3 0 .72-.55 1.3-1.22 1.3H16.7ZM24 31h-.73v6.38a.83.83 0 0 1-1.67 0v-.62l-.6.13v.62c0 .82.67 1.49 1.5 1.49s1.5-.67 1.5-1.49V31Zm3.11 0L25 38h.8l.65-2.4h2.1l.74 2.4H30l-2.22-7h-.67Zm1.25 4h-1.74l.82-2.99.92 2.99Z" fill="#D46A39"/></svg>