<!-- by TradingView --><svg width="56" height="56" xmlns="http://www.w3.org/2000/svg"><path fill="url(#paint0_linear)" d="M0 0h56v56H0z"/><path d="M40.201 16.926l-4.094 2.176-19.769 10.501a12.69 12.69 0 011.462-7.701 12.049 12.049 0 014.26-4.483 11.413 11.413 0 015.832-1.685 11.396 11.396 0 015.865 1.558l2.343-1.245.35-.186a14.027 14.027 0 00-7.327-2.815 13.884 13.884 0 00-7.657 1.591 14.638 14.638 0 00-5.732 5.53 15.486 15.486 0 00-2.077 8.978 2.825 2.825 0 01-.328 1.543c-.253.47-.633.85-1.093 1.095L11 32.44v3.065l3.638-1.934 1.178-.627 1.161-.617 20.84-11.074 2.343-1.244L45 17.436v-3.063l-4.799 2.553zM45 20.502L18.16 34.754 15.82 36 11 38.561v3.062l4.786-2.543 4.094-2.175 19.789-10.517c.067.536.1 1.075.1 1.615a12.693 12.693 0 01-1.561 6.105 12.049 12.049 0 01-4.266 4.487 11.41 11.41 0 01-5.84 1.682c-2.054.02-4.077-.521-5.869-1.569l-.144.08-2.54 1.35a14.027 14.027 0 007.325 2.816 13.883 13.883 0 007.657-1.59 14.638 14.638 0 005.733-5.526 15.487 15.487 0 002.079-8.988 2.828 2.828 0 01.328-1.542 2.67 2.67 0 011.092-1.095L45 23.556V20.5z" fill="#fff"/><defs><linearGradient id="paint0_linear" x1="10.418" y1="9.712" x2="68.147" y2="76.017" gradientUnits="userSpaceOnUse"><stop stop-color="#1A1E21"/><stop offset="1" stop-color="#06060A"/></linearGradient></defs></svg>